<?xml version="1.0" encoding="UTF-8"?><svg id="Layer_1" xmlns="http://www.w3.org/2000/svg" viewBox="0 0 276 98"><defs><style>.cls-1{fill:#731473;stroke-width:0px;}</style></defs><path id="Fill-22" class="cls-1" d="M170.96,31.12c3.04-.24,11.85-4.54,12.74-8.91.41-2.03.09-3.87-.87-5.06-.68-.84-1.62-1.28-2.72-1.28-.11,0-.22,0-.33.02-2.99.24-9.96,4.6-11.28,8.3-.73,2.03-.56,4.59.4,5.94.52.74,1.21,1.07,2.07,1.01"/><path id="Fill-24" class="cls-1" d="M274.84,63.68c-.47,0-1.04.27-1.65.79-2.64,2.23-5.83,3.41-9.21,3.41h0c-3.59,0-7.09-1.31-9.62-3.6-.28-.25-.32-.5-.29-.67.02-.18.13-.43.52-.62,9.3-4.7,14.53-8.9,16.94-13.6,1.72-3.36,1.74-7.01.05-9.79-1.76-2.87-5.01-4.46-9.15-4.46-10.85,0-18.79,8.21-19.77,20.44-.21,2.64-.09,5.11.37,7.34l.06.32-.32.06c-3.39.69-6.12.62-7.84-.21-2.47-1.19-2.47-5.71-2.47-10.94,0-6.84,0-14.59-5.89-15.37-.36-.05-.74-.07-1.1-.07-2.61,0-5.09,1.18-6.81,3.24-2.7,3.23-5.06,7.23-7.34,11.1l-1.28,2.17c-1.83,3.11-3.28,5.56-5.11,6.27-.25.1-.5.15-.72.15-1.8,0-1.93-2.94-2.1-6.66-.22-4.89-.49-10.97-4.57-12.19-4.24-1.26-10.8.93-18.59,6.2-.81.55-1.24.75-1.6.75-.83,0-.93-1.06-1-1.83-.06-.59-.11-1.13-.14-1.62-.55-7.55-3.92-7.55-5.55-7.55-1.91,0-3.5.87-4.87,2.65-1.74,2.26-3.56,5.47-5.49,8.87-3.37,5.94-6.85,12.09-10.25,13.61-.9.4-1.66.6-2.32.6-2.35,0-2.83-2.46-2.98-4.31-.3-3.53-.27-7.25-.25-10.53.02-2.82.04-5.49-.15-7.55-.19-2.03-1.59-3.29-3.67-3.29h-.09c-2.13.04-3.51,1.14-5.05,4.05-.73,1.37-1.48,3-2.35,4.88-1.25,2.71-2.66,5.77-4.45,9l-.45.83c-2.05,3.76-5.15,9.44-9.72,9.46-1.21,0-2.22-.44-2.95-1.26-1.13-1.29-1.53-3.39-1.17-6.24.23-1.86.63-3.66,1.02-5.4.99-4.43,1.84-8.27-.36-11.46-2.31-3.37-6-3.47-12.7-3.66h-.31c-3.04-.1-4.09-1.24-4.87-2.08-.5-.54-.87-.94-1.62-.95-.58,0-1.28.47-1.8,1.21-.45.65-1.4,2.45-.39,5.25,1.27,3.5,3.91,3.56,6.98,3.63h.56c2.15.07,4.18.12,5.22,1.59.99,1.39.71,2.75.22,5.22-.12.58-.25,1.22-.37,1.95-.91,5.07-1.59,9.9.04,13.32,1.44,3.03,4.21,4.64,8.02,4.64,5.72,0,9.56-2.72,13.7-9.7.59-.99,1.13-1.91,1.62-2.76,1.5-2.56,2.59-4.42,3.42-5.55.49-.67,1.03-1.29,1.71-1.29.17,0,.35.04.53.12.89.42.93,2.2.91,5.07v.31c-.03,5.76-.07,13.66,7.49,13.81h.23c8.94,0,13.79-10.65,17.34-18.43,2-4.38,3.44-7.55,5.1-7.55.07,0,.14,0,.21.02,1.58.25,2,3.41,2.52,10.04v.16s-.1.11-.1.11c-9.83,8.88-17.83,19.22-19.9,25.74-2.12,6.65-.58,12.35,4.12,15.25,1.81,1.12,3.97,1.71,6.24,1.71,3.22,0,6.44-1.14,9.34-3.28,10.46-7.76,9.9-27.17,8.58-41.1l-.02-.18.15-.11c4.88-3.64,8.53-5.41,11.14-5.41,4.92,0,5.09,6.35,5.2,10.56l.02.62c.25,9.26.39,14.36,4.46,14.36,2.81,0,4.95-1.4,7.62-4.98,2.14-2.87,4.07-6.47,5.93-9.95,2.81-5.27,5.24-9.81,7.8-10.64.49-.16.94-.24,1.34-.24,2.64,0,2.81,3.46,2.95,6.23.04.73.06,1.5.08,2.3.15,4.98.33,11.18,4.35,13.67,1.17.72,2.62,1.07,4.43,1.07,2.45,0,5.55-.67,9.21-2,.82-.3,1.43-.48,1.95-.48.9,0,1.46.53,2.31,1.64,2.95,3.84,7.59,5.87,13.43,5.87,10.65,0,14.8-7.11,16.16-9.44.38-.65.42-1.51.09-2.09-.14-.24-.4-.53-.88-.53M164.55,86.85c-1.41,1.49-2.99,2.28-4.57,2.28h0c-.5,0-1-.08-1.49-.24-1.24-.41-2.1-1.22-2.57-2.41-1.08-2.78.07-7.56,3.17-13.12,2.66-4.76,6.12-8.96,8.56-11.65.37-.41.66-.59.93-.59.64,0,.69.87.71,1.16l.23,4.15c.51,8.95-1.35,16.58-4.98,20.43M252.16,59.9c-.79,0-.94-.9-1-1.28-.9-5.29,2.32-11.83,5.89-14.61,1.55-1.2,3.3-1.87,4.94-1.87,1.39,0,2.58.49,3.34,1.37.77.9,1.06,2.15.84,3.62-.62,4.05-5.49,8.7-13.03,12.46-.42.21-.72.3-.97.3"/><path id="Fill-26" class="cls-1" d="M90.76,65.21c-2.58,1.9-4.82,2.86-6.65,2.86h0c-1.55,0-2.85-.68-3.86-2.01-2.61-3.46-4.61-10.57-5.49-19.51-.07-.68.21-1.22.77-1.51,5.1-2.6,7.98-5.44,9.69-7.35,5.94-6.61,9.13-13.3,10.34-21.66.68-4.69-.43-9.24-2.97-12.18-2.35-2.73-5.81-3.97-9.9-3.56-8.61.87-14,8.24-16.5,22.54-1.08,6.17-1.34,13.29-.79,21.16l.02.29-.29.05c-3.2.53-6.91.85-11.02.95h-.25s-.07-.23-.07-.23c-1.33-4.61-3.02-9.57-5.16-15.16-4.2-11.01-10.35-17.87-16.46-18.34-3.92-.3-6.19,1.16-9.25,4.11C11.72,26.47,2.86,50.15.41,62.75c-.59,3.04-.43,5.13.49,6.38.68.92,1.81,1.45,3.44,1.62,3.08.32,4.96-1.68,5.87-6.1,1.41-6.89,2.86-12.24,5.34-19.72,6.1-18.42,9.44-25.33,12.74-26.42.23-.08.46-.11.71-.11,4.03,0,9.92,10.55,14,25.09.09.31.17.77-.08,1.1-.25.33-.68.36-.99.36-.09,0-.2,0-.31-.01-11.16-.89-13.19-1.95-16.25-3.54l-.55-.29c-.51-.26-.92-.51-1.28-.73-.57-.34-.97-.59-1.33-.61h-.07c-.5,0-1.04.27-1.52.77-.89.91-1.39,2.4-1.34,3.97.07,2.58,1.45,4.26,4.36,5.28,4.88,1.71,11.51,2.65,19.18,2.7,1.65.01,2.45.3,2.78,2,.63,3.29,1.17,6.67,1.59,10.05.59,4.74,2.21,6.48,5.69,6.22,3.65-.27,4.38-3.65,4.35-6.44-.03-3.61-.63-7.94-1.76-12.86l-.08-.33.34-.06c3.53-.61,6.81-1.35,9.75-2.18l.37-.11.04.38c.09.81.19,1.56.27,2.22.86,6.59,1.85,12.47,5.22,17.6,2.33,3.54,5.98,4.28,8.64,4.28,5.07,0,10.32-2.59,13.05-4.99,1.67-1.47,1.32-2.4.82-3.05-.67-.87-1.98-.85-3.13,0M74.28,38.19c-.26-11.33,1.23-18.59,2.52-22.69,1.1-3.49,3.71-7.27,6.18-7.54,1.44-.16,2.54.27,3.34,1.26,1.79,2.22,1.58,6.96.79,10.65-1.95,9.08-5.31,15.5-10.25,19.62-.75.62-1.21.88-1.6.88-.86,0-.96-1.13-.98-2.19"/><path id="Fill-28" class="cls-1" d="M143.27,31.86c2.86-.82,9.58-6.7,9.34-10.09-.2-2.75-1.72-4.54-3.88-4.54-.4,0-.81.06-1.22.18-2.65.76-8.67,5.78-8.87,9.35-.1,1.7.37,3.22,1.28,4.19.88.93,2.1,1.26,3.35.91"/></svg>