<?xml version="1.0" encoding="UTF-8" standalone="no"?><!DOCTYPE svg PUBLIC "-//W3C//DTD SVG 1.1//EN" "http://www.w3.org/Graphics/SVG/1.1/DTD/svg11.dtd"><svg width="100%" height="100%" viewBox="0 0 346 126"  preserveAspectRatio="xMinYMin meet" version="1.1" xmlns="http://www.w3.org/2000/svg" xmlns:xlink="http://www.w3.org/1999/xlink" xml:space="preserve" xmlns:serif="http://www.serif.com/" style="fill-rule:evenodd;clip-rule:evenodd;stroke-linejoin:round;stroke-miterlimit:1.41421;"><path d="M33.644,120.212c-17.565,0 -31.855,-14.291 -31.855,-31.856l0,-54.562c0,-17.566 14.29,-31.856 31.855,-31.856l60.385,0c17.565,0 31.856,14.291 31.856,31.856l0,54.562c0,17.565 -14.291,31.856 -31.856,31.856l-60.385,0Z" style="fill:#fff;fill-rule:nonzero;"/><path d="M92.436,52.101c-3.168,0 -4.842,2.525 -5.395,5.027l10.697,0.022c-0.496,-3.477 -2.978,-5.044 -5.289,-5.049l-0.013,0Zm1.157,17.805c-2.868,-0.006 -5.568,-1.135 -7.603,-3.177c-2.033,-2.043 -3.15,-4.747 -3.144,-7.615c0.015,-7.056 4.835,-10.749 9.588,-10.749c4.711,0.01 9.435,3.35 9.419,10.789c-0.001,0.394 -0.002,0.784 -0.047,1.177c-0.02,0.177 -0.17,0.311 -0.348,0.311l-14.471,-0.031c0.671,3.141 3.446,5.468 6.614,5.473c1.87,0 3.718,-0.686 5.088,-1.884c0.066,-0.058 0.148,-0.087 0.23,-0.087c0.096,0 0.191,0.039 0.26,0.116l1.936,2.155c0.126,0.142 0.118,0.357 -0.019,0.488c-2.086,1.985 -4.673,3.034 -7.48,3.034l-0.023,0Z" style="fill:#e5481d;fill-rule:nonzero;"/><path d="M48.899,69.901c-3.025,-0.007 -4.899,-1.835 -4.894,-4.771l0.053,-24.967c0,-0.093 0.037,-0.182 0.103,-0.248c0.065,-0.065 0.154,-0.101 0.247,-0.101l3.25,0.006c0.194,0.001 0.349,0.158 0.349,0.351l-0.05,23.908c-0.004,1.913 0.697,2.299 1.831,2.301l0.093,0c0.667,0 0.77,-0.017 1.576,-0.15c0.02,-0.004 0.038,-0.005 0.057,-0.005c0.083,0 0.163,0.03 0.227,0.083c0.078,0.067 0.123,0.164 0.123,0.268l-0.006,2.61c-0.001,0.147 -0.093,0.278 -0.231,0.328c-0.939,0.34 -1.839,0.387 -2.673,0.387l-0.055,0Z" style="fill:#e5481d;fill-rule:nonzero;"/><path d="M110.261,69.858c-1.497,-0.005 -2.741,-0.451 -3.598,-1.293c-0.851,-0.835 -1.299,-2.038 -1.297,-3.478l0.053,-24.968c0.001,-0.093 0.037,-0.181 0.103,-0.248c0.066,-0.065 0.154,-0.101 0.247,-0.101l3.251,0.006c0.193,0.002 0.349,0.158 0.349,0.351l-0.05,23.908c-0.003,0.855 0.135,1.442 0.421,1.796c0.277,0.342 0.726,0.504 1.41,0.505l0.093,0.001c0.667,-0.001 0.77,-0.017 1.575,-0.151c0.02,-0.004 0.038,-0.005 0.058,-0.005c0.082,0 0.162,0.03 0.226,0.083c0.078,0.067 0.123,0.164 0.123,0.267l-0.005,2.611c-0.001,0.147 -0.093,0.278 -0.231,0.328c-0.941,0.34 -1.841,0.387 -2.673,0.387l-0.055,0Z" style="fill:#e5481d;fill-rule:nonzero;"/><path d="M71.446,69.793c-0.161,-0.001 -0.3,-0.11 -0.338,-0.266l-4.056,-16.369l-4.125,16.352c-0.039,0.155 -0.178,0.263 -0.338,0.263l-4.273,-0.008c-0.159,0 -0.298,-0.108 -0.338,-0.261l-5.373,-20.474c-0.028,-0.105 -0.005,-0.217 0.062,-0.303c0.066,-0.085 0.168,-0.136 0.276,-0.136l3.142,0.007c0.16,0.001 0.299,0.11 0.339,0.264l2.834,11.291c0.401,1.562 0.852,3.373 1.265,5.304c0.319,-1.486 0.667,-3.02 1.058,-4.511l3.109,-12.067c0.04,-0.154 0.179,-0.262 0.338,-0.262l4.066,0.009c0.16,0 0.299,0.108 0.338,0.263l3.059,12.082c0.372,1.438 0.696,2.885 1.038,4.512c0.422,-1.932 0.88,-3.739 1.288,-5.298l2.882,-11.278c0.039,-0.155 0.179,-0.262 0.339,-0.262l3.141,0.006c0.108,0 0.211,0.051 0.277,0.137c0.066,0.086 0.088,0.198 0.06,0.303l-5.459,20.451c-0.041,0.153 -0.179,0.26 -0.338,0.26l-4.273,-0.009Z" style="fill:#e5481d;fill-rule:nonzero;"/><path d="M23.548,56.917c1.363,0.489 2.821,0.739 4.337,0.742c1.489,0 3.003,-0.25 4.387,-0.724l-4.362,-10.505l-4.362,10.487Zm14.188,12.792c-0.121,0 -0.229,-0.072 -0.274,-0.184l-3.829,-9.267c-1.745,0.669 -3.668,1.009 -5.716,1.009c-1.999,-0.005 -3.945,-0.353 -5.788,-1.036l-3.869,9.254c-0.045,0.111 -0.154,0.183 -0.274,0.183l-3.687,-0.01c-0.1,0 -0.193,-0.051 -0.248,-0.134c-0.054,-0.083 -0.064,-0.188 -0.025,-0.279l12.195,-28.58c0.048,-0.109 0.155,-0.181 0.274,-0.181l2.854,0c0.119,0 0.227,0.072 0.274,0.182l12.103,28.636c0.039,0.092 0.03,0.197 -0.026,0.28c-0.055,0.083 -0.148,0.133 -0.248,0.133l-3.716,-0.006Z" style="fill:#e5481d;fill-rule:nonzero;"/><path d="M65.202,118.21c-0.197,0 -0.356,-0.159 -0.356,-0.356l0,-9.516c0,-0.107 0.047,-0.207 0.129,-0.274l25.058,-20.54c0.151,-0.125 0.173,-0.349 0.048,-0.501l-1.709,-2.075c-0.125,-0.152 -0.349,-0.174 -0.501,-0.049l-15.075,12.319c-0.229,0.188 -0.574,0.031 -0.583,-0.265l-0.14,-9.006c-0.006,-0.196 -0.17,-0.351 -0.367,-0.345l-2.687,0.082c-0.196,0.005 -0.351,0.171 -0.345,0.367l0.236,12.187c0.003,0.111 -0.044,0.216 -0.129,0.286l-4.859,4.001c-0.17,0.14 -0.424,0.097 -0.533,-0.093c-2.32,-4.023 -6.065,-10.538 -8.364,-14.624c-0.097,-0.172 -0.312,-0.229 -0.483,-0.132l-2.343,1.317c-0.171,0.097 -0.233,0.313 -0.137,0.484c1.278,2.271 7.517,13.232 9.336,16.291c0.033,0.054 0.047,0.112 0.047,0.176l0,9.91c0,0.197 -0.16,0.356 -0.356,0.356l-0.172,0.001l-27.422,0c-16.654,0 -30.155,-13.501 -30.155,-30.155l0,-54.562c0,-16.655 13.501,-30.156 30.155,-30.156l60.385,0c16.654,0 30.155,13.501 30.155,30.156l0,54.562c0,16.654 -13.501,30.155 -30.155,30.155l-11.591,0l-17.087,-0.001Zm28.678,-118.21l-60.385,0c-18.499,0 -33.495,14.996 -33.495,33.494l0,54.562c0,18.498 14.996,33.493 33.494,33.493l27.666,0c0.174,0 0.315,0.141 0.315,0.315l0,3.553c0,0.175 0.142,0.315 0.315,0.315l6.4,0c0.174,0 0.315,-0.14 0.315,-0.315l0,-3.553c0,-0.174 0.141,-0.315 0.316,-0.315l25.059,0c18.498,0 33.494,-14.995 33.494,-33.493l0,-54.562c0,-18.498 -14.996,-33.494 -33.494,-33.494" style="fill:#e5481d;fill-rule:nonzero;"/><path d="M169.884,44.42l1.979,-1.16c0.56,1.579 1.719,2.359 3.478,2.359c1.739,0 2.6,-0.74 2.6,-1.84c0,-0.578 -0.241,-0.998 -0.701,-1.297c-0.46,-0.301 -1.299,-0.641 -2.478,-1.001c-1.339,-0.4 -1.999,-0.66 -2.939,-1.279c-0.899,-0.639 -1.359,-1.559 -1.359,-2.819c0,-1.239 0.44,-2.218 1.319,-2.938c0.88,-0.739 1.939,-1.099 3.179,-1.099c2.238,0 3.978,1.159 4.877,3.078l-1.939,1.119c-0.579,-1.299 -1.559,-1.959 -2.938,-1.959c-1.34,0 -2.199,0.68 -2.199,1.739c0,1.04 0.68,1.52 2.818,2.179c0.539,0.181 0.92,0.3 1.159,0.401c0.261,0.079 0.601,0.219 1.04,0.399c0.459,0.179 0.799,0.38 1.02,0.559c0.739,0.581 1.539,1.539 1.439,2.879c0,1.259 -0.46,2.279 -1.379,3.018c-0.9,0.74 -2.099,1.099 -3.579,1.099c-2.698,0.001 -4.657,-1.297 -5.397,-3.438" style="fill:#009eb5;fill-rule:nonzero;"/><path d="M187.118,45.799c0.899,0 1.659,-0.3 2.259,-0.899c0.6,-0.621 0.899,-1.38 0.899,-2.299c0,-0.92 -0.299,-1.68 -0.899,-2.28c-0.6,-0.619 -1.359,-0.918 -2.258,-0.918c-0.899,0 -1.659,0.299 -2.259,0.918c-0.6,0.6 -0.899,1.36 -0.899,2.28c0,0.919 0.299,1.678 0.899,2.299c0.6,0.599 1.359,0.899 2.258,0.899m3.158,-8.195l2.16,0l0,9.994l-2.16,0l0,-1.44c-0.819,1.14 -1.977,1.7 -3.498,1.7c-1.379,0 -2.538,-0.5 -3.517,-1.52c-0.981,-1.018 -1.459,-2.278 -1.459,-3.737c0,-1.48 0.478,-2.719 1.459,-3.739c0.978,-1.019 2.138,-1.518 3.517,-1.518c1.52,0 2.679,0.559 3.498,1.679l0,-1.419Z" style="fill:#009eb5;fill-rule:nonzero;"/><path d="M209.651,41.402l0,6.196l-2.159,0l0,-6.056c0,-1.379 -0.739,-2.179 -1.939,-2.179c-1.339,0 -2.178,0.88 -2.178,2.639l0,5.596l-2.16,0l0,-6.056c0,-1.379 -0.678,-2.179 -1.878,-2.179c-1.3,0 -2.219,0.899 -2.219,2.639l0,5.596l-2.159,0l0,-9.994l2.159,0l0,1.199c0.639,-0.979 1.598,-1.459 2.858,-1.459c1.279,0 2.219,0.52 2.839,1.579c0.659,-1.059 1.679,-1.579 3.058,-1.579c2.259,0 3.778,1.579 3.778,4.058" style="fill:#009eb5;fill-rule:nonzero;"/><path d="M219.531,41.761c-0.3,-1.619 -1.439,-2.459 -2.858,-2.459c-1.599,0 -2.719,0.94 -3.019,2.459l5.877,0Zm-5.856,1.759c0.319,1.519 1.539,2.359 3.198,2.359c1.139,0 1.999,-0.42 2.578,-1.239l1.779,1.039c-0.979,1.459 -2.438,2.179 -4.378,2.179c-1.619,0 -2.938,-0.5 -3.937,-1.48c-0.999,-0.999 -1.499,-2.259 -1.499,-3.777c0,-1.499 0.5,-2.738 1.478,-3.738c0.981,-1.02 2.26,-1.519 3.799,-1.519c1.459,0 2.658,0.52 3.598,1.539c0.939,1.02 1.419,2.278 1.419,3.737c0,0.22 -0.02,0.52 -0.08,0.9l-7.955,0Z" style="fill:#009eb5;fill-rule:nonzero;"/><path d="M232.707,41.462l0,6.137l-2.159,0l0,-5.917c0,-1.499 -0.86,-2.319 -2.238,-2.319c-1.52,0 -2.54,0.94 -2.54,2.878l0,5.358l-2.158,0l0,-9.994l2.158,0l0,1.279c0.661,-1.02 1.68,-1.539 3.099,-1.539c2.299,0 3.838,1.558 3.838,4.117" style="fill:#009eb5;fill-rule:nonzero;"/><path d="M251.543,37.604l2.278,0l-3.138,9.994l-2.119,0l-2.079,-6.736l-2.098,6.736l-2.119,0l-3.139,-9.994l2.279,0l1.939,6.896l2.099,-6.896l2.059,0l2.079,6.896l1.959,-6.896Z" style="fill:#009eb5;fill-rule:nonzero;"/><path d="M262.582,41.761c-0.3,-1.619 -1.439,-2.459 -2.858,-2.459c-1.6,0 -2.719,0.94 -3.019,2.459l5.877,0Zm-5.857,1.759c0.32,1.519 1.539,2.359 3.198,2.359c1.139,0 1.999,-0.42 2.579,-1.239l1.779,1.039c-0.979,1.459 -2.439,2.179 -4.378,2.179c-1.619,0 -2.938,-0.5 -3.937,-1.48c-1,-0.999 -1.5,-2.259 -1.5,-3.777c0,-1.499 0.5,-2.738 1.479,-3.738c0.98,-1.02 2.259,-1.519 3.798,-1.519c1.459,0 2.658,0.52 3.599,1.539c0.939,1.02 1.419,2.278 1.419,3.737c0,0.22 -0.021,0.52 -0.08,0.9l-7.956,0Z" style="fill:#009eb5;fill-rule:nonzero;"/><path d="M268.823,39.283c0.54,-1.239 1.579,-1.859 3.078,-1.859l0,2.338c-0.819,-0.059 -1.539,0.141 -2.158,0.6c-0.62,0.441 -0.92,1.18 -0.92,2.199l0,5.037l-2.158,0l0,-9.994l2.158,0l0,1.679Z" style="fill:#009eb5;fill-rule:nonzero;"/><path d="M282.337,47.598l-2.579,0l-4.098,-4.617l0,4.617l-2.158,0l0,-13.992l2.158,0l0,8.415l3.878,-4.417l2.639,0l-4.398,4.896l4.558,5.098Z" style="fill:#009eb5;fill-rule:nonzero;"/><path d="M290.556,41.761c-0.3,-1.619 -1.439,-2.459 -2.858,-2.459c-1.6,0 -2.719,0.94 -3.019,2.459l5.877,0Zm-5.857,1.759c0.32,1.519 1.539,2.359 3.198,2.359c1.139,0 1.999,-0.42 2.579,-1.239l1.779,1.039c-0.979,1.459 -2.439,2.179 -4.378,2.179c-1.619,0 -2.938,-0.5 -3.937,-1.48c-1,-0.999 -1.5,-2.259 -1.5,-3.777c0,-1.499 0.5,-2.738 1.479,-3.738c0.98,-1.02 2.259,-1.519 3.798,-1.519c1.459,0 2.659,0.52 3.599,1.539c0.939,1.02 1.419,2.278 1.419,3.737c0,0.22 -0.021,0.52 -0.08,0.9l-7.956,0Z" style="fill:#009eb5;fill-rule:nonzero;"/><path d="M303.733,41.462l0,6.137l-2.159,0l0,-5.917c0,-1.499 -0.86,-2.319 -2.238,-2.319c-1.52,0 -2.54,0.94 -2.54,2.878l0,5.358l-2.158,0l0,-9.994l2.158,0l0,1.279c0.661,-1.02 1.68,-1.539 3.099,-1.539c2.299,0 3.838,1.558 3.838,4.117" style="fill:#009eb5;fill-rule:nonzero;"/><path d="M315.812,45.799c0.899,0 1.659,-0.3 2.259,-0.899c0.599,-0.621 0.899,-1.38 0.899,-2.299c0,-0.92 -0.3,-1.68 -0.899,-2.28c-0.6,-0.619 -1.36,-0.918 -2.259,-0.918c-0.899,0 -1.659,0.299 -2.259,0.918c-0.599,0.6 -0.899,1.36 -0.899,2.28c0,0.919 0.3,1.678 0.899,2.299c0.6,0.599 1.36,0.899 2.259,0.899m3.158,-8.195l2.159,0l0,9.994l-2.159,0l0,-1.44c-0.819,1.14 -1.978,1.7 -3.498,1.7c-1.379,0 -2.538,-0.5 -3.517,-1.52c-0.98,-1.018 -1.46,-2.278 -1.46,-3.737c0,-1.48 0.48,-2.719 1.46,-3.739c0.979,-1.019 2.138,-1.518 3.517,-1.518c1.52,0 2.679,0.559 3.498,1.679l0,-1.419Z" style="fill:#009eb5;fill-rule:nonzero;"/><path d="M328.409,45.799c0.899,0 1.659,-0.3 2.259,-0.899c0.599,-0.621 0.899,-1.38 0.899,-2.299c0,-0.92 -0.3,-1.68 -0.899,-2.28c-0.6,-0.619 -1.36,-0.918 -2.259,-0.918c-0.899,0 -1.659,0.299 -2.259,0.918c-0.599,0.6 -0.899,1.36 -0.899,2.28c0,0.919 0.3,1.678 0.899,2.299c0.6,0.599 1.36,0.899 2.259,0.899m3.158,-8.195l2.159,0l0,9.994l-2.159,0l0,-1.44c-0.819,1.14 -1.978,1.7 -3.498,1.7c-1.379,0 -2.538,-0.5 -3.517,-1.52c-0.98,-1.018 -1.46,-2.278 -1.46,-3.737c0,-1.48 0.48,-2.719 1.46,-3.739c0.979,-1.019 2.138,-1.518 3.517,-1.518c1.52,0 2.679,0.559 3.498,1.679l0,-1.419Z" style="fill:#009eb5;fill-rule:nonzero;"/><path d="M345.344,41.462l0,6.137l-2.159,0l0,-5.917c0,-1.499 -0.86,-2.319 -2.238,-2.319c-1.52,0 -2.54,0.94 -2.54,2.878l0,5.358l-2.158,0l0,-9.994l2.158,0l0,1.279c0.661,-1.02 1.68,-1.539 3.099,-1.539c2.299,0 3.838,1.558 3.838,4.117" style="fill:#009eb5;fill-rule:nonzero;"/><path d="M181.997,59.822l2.279,0l-3.138,9.994l-2.12,0l-2.078,-6.736l-2.099,6.736l-2.118,0l-3.138,-9.994l2.278,0l1.939,6.895l2.099,-6.895l2.059,0l2.078,6.895l1.959,-6.895Z" style="fill:#009eb5;fill-rule:nonzero;"/><path d="M190.199,67.977c0.88,0 1.619,-0.3 2.219,-0.899c0.599,-0.6 0.9,-1.36 0.9,-2.259c0,-0.899 -0.301,-1.659 -0.9,-2.259c-0.6,-0.599 -1.339,-0.899 -2.219,-0.899c-0.879,0 -1.619,0.3 -2.219,0.899c-0.599,0.6 -0.899,1.36 -0.899,2.259c0,0.899 0.3,1.659 0.899,2.259c0.6,0.599 1.34,0.899 2.219,0.899m-3.738,0.579c-1.02,-1.018 -1.539,-2.259 -1.539,-3.737c0,-1.479 0.519,-2.718 1.539,-3.738c1.019,-1.02 2.279,-1.519 3.738,-1.519c1.479,0 2.719,0.499 3.738,1.519c1.02,1.02 1.539,2.259 1.539,3.738c0,1.478 -0.519,2.719 -1.539,3.737c-1.019,1.02 -2.259,1.52 -3.738,1.52c-1.459,0 -2.719,-0.5 -3.738,-1.52" style="fill:#009eb5;fill-rule:nonzero;"/><path d="M206.535,63.679l0,6.136l-2.16,0l0,-5.916c0,-1.499 -0.86,-2.319 -2.238,-2.319c-1.52,0 -2.539,0.94 -2.539,2.878l0,5.357l-2.159,0l0,-9.993l2.159,0l0,1.279c0.66,-1.02 1.679,-1.539 3.099,-1.539c2.298,0 3.838,1.558 3.838,4.117" style="fill:#009eb5;fill-rule:nonzero;"/><path d="M216.413,63.979c-0.3,-1.619 -1.439,-2.459 -2.858,-2.459c-1.6,0 -2.719,0.939 -3.019,2.459l5.877,0Zm-5.856,1.758c0.319,1.52 1.538,2.36 3.197,2.36c1.138,0 1.999,-0.42 2.578,-1.24l1.78,1.039c-0.98,1.459 -2.44,2.179 -4.379,2.179c-1.619,0 -2.938,-0.5 -3.936,-1.479c-1,-0.999 -1.5,-2.259 -1.5,-3.778c0,-1.498 0.5,-2.737 1.478,-3.737c0.98,-1.02 2.26,-1.519 3.798,-1.519c1.459,0 2.658,0.52 3.599,1.539c0.94,1.02 1.419,2.278 1.419,3.737c0,0.22 -0.021,0.519 -0.08,0.899l-7.954,0Z" style="fill:#009eb5;fill-rule:nonzero;"/><path d="M229.589,63.679l0,6.136l-2.159,0l0,-5.916c0,-1.499 -0.86,-2.319 -2.238,-2.319c-1.52,0 -2.54,0.94 -2.54,2.878l0,5.357l-2.158,0l0,-9.993l2.158,0l0,1.279c0.661,-1.02 1.68,-1.539 3.099,-1.539c2.299,0 3.838,1.558 3.838,4.117" style="fill:#009eb5;fill-rule:nonzero;"/><path d="M244.466,63.979c-0.3,-1.619 -1.439,-2.459 -2.858,-2.459c-1.6,0 -2.719,0.939 -3.019,2.459l5.877,0Zm-5.857,1.758c0.32,1.52 1.539,2.36 3.198,2.36c1.139,0 1.999,-0.42 2.579,-1.24l1.779,1.039c-0.979,1.459 -2.439,2.179 -4.378,2.179c-1.619,0 -2.938,-0.5 -3.937,-1.479c-1,-0.999 -1.5,-2.259 -1.5,-3.778c0,-1.498 0.5,-2.737 1.479,-3.737c0.98,-1.02 2.259,-1.519 3.798,-1.519c1.459,0 2.659,0.52 3.599,1.539c0.939,1.02 1.419,2.278 1.419,3.737c0,0.22 -0.021,0.519 -0.08,0.899l-7.956,0Z" style="fill:#009eb5;fill-rule:nonzero;"/><path d="M257.643,63.679l0,6.136l-2.159,0l0,-5.916c0,-1.499 -0.86,-2.319 -2.238,-2.319c-1.52,0 -2.54,0.94 -2.54,2.878l0,5.357l-2.158,0l0,-9.993l2.158,0l0,1.279c0.661,-1.02 1.68,-1.539 3.099,-1.539c2.299,0 3.838,1.558 3.838,4.117" style="fill:#009eb5;fill-rule:nonzero;"/><path d="M276.479,59.822l2.278,0l-3.138,9.994l-2.119,0l-2.079,-6.736l-2.098,6.736l-2.119,0l-3.139,-9.994l2.279,0l1.939,6.895l2.099,-6.895l2.059,0l2.079,6.895l1.959,-6.895Z" style="fill:#009eb5;fill-rule:nonzero;"/><path d="M280.361,59.822l2.158,0l0,9.994l-2.158,0l0,-9.994Zm0.1,-1.9c-0.54,-0.559 -0.54,-1.399 0,-1.938c0.54,-0.56 1.419,-0.56 1.959,0c0.539,0.539 0.539,1.379 -0.021,1.938c-0.539,0.54 -1.378,0.54 -1.938,0" style="fill:#009eb5;fill-rule:nonzero;"/><path d="M285.3,57.922c-0.54,-0.56 -0.54,-1.399 0,-1.938c0.56,-0.56 1.399,-0.56 1.938,0c0.56,0.539 0.56,1.378 0,1.938c-0.539,0.54 -1.378,0.54 -1.938,0m-0.101,1.899l2.16,0l0,10.393c0,2.78 -1.36,4.059 -4.098,3.859l0,-2.079c1.339,0.139 1.938,-0.4 1.938,-1.78l0,-10.393Z" style="fill:#009eb5;fill-rule:nonzero;"/><path d="M298.714,69.816l-2.579,-0.001l-4.098,-4.617l0,4.618l-2.158,0l0,-13.992l2.158,0l0,8.415l3.878,-4.417l2.639,0l-4.398,4.896l4.558,5.098Z" style="fill:#009eb5;fill-rule:nonzero;"/><path d="M306.933,63.979c-0.3,-1.619 -1.439,-2.459 -2.858,-2.459c-1.6,0 -2.719,0.939 -3.019,2.459l5.877,0Zm-5.857,1.758c0.32,1.52 1.539,2.36 3.198,2.36c1.139,0 1.999,-0.42 2.579,-1.24l1.779,1.039c-0.979,1.459 -2.439,2.179 -4.378,2.179c-1.619,0 -2.938,-0.5 -3.937,-1.479c-1,-0.999 -1.5,-2.259 -1.5,-3.778c0,-1.498 0.5,-2.737 1.479,-3.737c0.98,-1.02 2.259,-1.519 3.798,-1.519c1.459,0 2.659,0.52 3.599,1.539c0.939,1.02 1.419,2.278 1.419,3.737c0,0.22 -0.021,0.519 -0.08,0.899l-7.956,0Z" style="fill:#009eb5;fill-rule:nonzero;"/><path d="M320.11,63.679l0,6.136l-2.159,0l0,-5.916c0,-1.499 -0.86,-2.319 -2.238,-2.319c-1.52,0 -2.54,0.94 -2.54,2.878l0,5.357l-2.158,0l0,-9.993l2.158,0l0,1.279c0.661,-1.02 1.68,-1.539 3.099,-1.539c2.299,0 3.838,1.558 3.838,4.117" style="fill:#009eb5;fill-rule:nonzero;"/></svg>