<svg id="b" xmlns="http://www.w3.org/2000/svg" viewBox="0 0 127.85 55.01"><g id="c"><g id="d"><g id="e" fill="#da3c2b"><path id="f" d="M21.63 54.52c.45-.65 2.47-3.58 3.2-4.92h-2.25c-.58 0-.86-.08-.81-.29.07-.24.19-.45.37-.62.17.1.42.11 1.2.11h2.92c-.01.28-.08.56-.21.82-.23.5-1.66 2.75-2.75 4.4 1.11.08 2.23.08 3.34 0-.03.27-.16.51-.36.69-.21.14-.6.17-1.78.17-.91.03-1.82-.01-2.72-.12l-.15-.23z"/><path id="g" d="M33.57 46.51c.02.37-.27.69-.64.7h-.02a.62.62 0 01-.66-.59v-.09c0-.38.3-.7.68-.7.34 0 .63.26.64.6v.07zm-.07 8c0 .25-.07.32-.28.35-.31.04-.61.07-.92.07.01-.55.04-1.35.04-2.17v-2.33c0-.84-.03-1.27-.05-1.56.33-.08.68-.13 1.02-.14.14 0 .19.07.19.86v4.93z"/><path id="h" d="M44.45 53.76c-.02.38-.21.72-.52.94-.42.2-.89.31-1.35.3a2.755 2.755 0 01-2.97-3.08c0-1.74 1.05-3.29 2.87-3.29 1.21-.05 2.23.89 2.28 2.1v.18c0 .14-.01.29-.04.43-.05.23-.7.41-1.19.48-.91.06-1.82.07-2.73.04a2.01 2.01 0 001.81 2.2c.09 0 .19.01.28 0 .53 0 1.06-.13 1.55-.35l.03.03zm-3.62-2.64c.99.04 2.24.02 2.49 0 .16 0 .29-.12.29-.28v-.01c.11-.7-.37-1.36-1.07-1.46-.07-.01-.14-.02-.21-.01-.71 0-1.38.62-1.49 1.77z"/><path id="i" d="M51.83 51.64c.86-.79 2.43-2.49 2.91-3.01.24 0 .47.02.7.08.25.08.28.18-.11.59-.57.61-1.48 1.46-2.25 2.22a33.57 33.57 0 002.86 3.22v.04c-.28.11-.58.16-.87.15-.33 0-.65-.16-.84-.43-.85-.88-1.65-1.8-2.4-2.76v2.75c0 .28-.08.35-.33.37-.29.03-.58.04-.87.04.03-.55.04-1.37.04-2.53v-5.21c0-.83-.03-1.24-.05-1.53.33-.11.67-.18 1.02-.19.14 0 .19.07.19.9v5.29z"/><path id="j" d="M65.8 53.76c-.02.38-.21.72-.52.94-.42.2-.89.31-1.35.3a2.755 2.755 0 01-2.97-3.08c0-1.74 1.05-3.29 2.87-3.29 1.21-.05 2.23.89 2.28 2.1v.18c0 .14-.01.29-.04.43-.05.23-.7.41-1.19.48-.91.06-1.82.07-2.73.04a2.01 2.01 0 001.81 2.2c.09 0 .18.01.28 0 .53 0 1.06-.13 1.55-.35l.03.03zm-3.62-2.64c.99.04 2.24.02 2.49 0 .16 0 .29-.12.29-.28v-.01c.11-.7-.37-1.36-1.07-1.46-.07-.01-.14-.02-.21-.01-.7 0-1.38.62-1.49 1.77z"/><path id="k" d="M76.08 51.16c0-1.06-.5-1.6-1.28-1.6-.62.04-1.19.34-1.56.84v4.11c0 .28-.05.32-.29.35-.31.04-.62.06-.92.05.03-.5.04-1.31.04-2.54v-2.33c0-.51-.05-.73-.23-.87v-.05c.17-.26.45-.44.76-.48.43 0 .55.64.59 1.04.52-.6 1.25-.97 2.04-1.04 1.59 0 2.02 1.19 2.02 2.51v1.93c0 .8.03 1.38.05 1.73-.34.06-.68.1-1.02.11-.15 0-.21-.07-.21-.19v-3.57z"/><path id="l" d="M85 49.56a3.11 3.11 0 012.04-.92c1.55 0 2 1.24 2 2.54v1.89c0 .86 0 1.42.03 1.74-.34.07-.68.11-1.02.11-.14 0-.19-.07-.19-.22 0-.39.02-2.22.02-3.44s-.6-1.7-1.31-1.7c-.6.04-1.16.3-1.56.75v4.23c0 .23-.05.3-.26.33-.31.04-.62.06-.94.05.03-.5.04-1.31.04-2.54v-5.19c0-.51-.01-1.02-.05-1.53.33-.11.67-.17 1.02-.19.14 0 .19.07.19.9v3.2z"/><path id="m" d="M95.63 50.41c0-.52-.01-1.04-.05-1.56.33-.09.68-.13 1.02-.14.14 0 .19.07.19.86v2.82c0 1.46.76 1.66 1.35 1.66.56-.02 1.08-.28 1.42-.72v-4.06c0-.35.04-.42.22-.47.32-.04.65-.07.98-.08 0 .3-.04 1.27-.04 2.47v2.22c0 .68.17.82.57.88v.05c-.05.33-.31.59-.64.65-.58 0-.88-.37-.97-.98-.33.34-.72.61-1.15.8-.28.12-.58.18-.88.18-1.4 0-2.03-.91-2.03-2.28V50.4z"/><path id="n" d="M108.64 46.51c.02.37-.27.69-.64.7h-.02a.62.62 0 01-.66-.59v-.09c0-.38.3-.7.68-.7.34 0 .63.26.64.6v.07zm-.07 8c0 .25-.07.32-.28.35-.31.04-.61.07-.92.07.01-.55.04-1.35.04-2.17v-2.33c0-.84-.03-1.27-.05-1.56.33-.08.68-.13 1.02-.14.14 0 .19.07.19.86v4.93z"/><path id="o" d="M118.17 49.1c.03.25-.14.64-.46.62-.31-.16-.66-.25-1.01-.26a.828.828 0 00-.93.73v.06c.02.37.25.68.59.81.36.19.83.4 1.23.64.55.25.9.8.9 1.4-.05 1.11-1 1.97-2.11 1.91-.05 0-.1 0-.14-.01-.53.02-1.05-.13-1.49-.41a.422.422 0 01-.24-.35c.01-.22.11-.43.28-.58.45.32.98.5 1.53.51.69 0 1.05-.35 1.05-.83 0-.33-.19-.59-.68-.84-.37-.19-.72-.35-1.05-.52-.59-.28-.96-.87-.97-1.52a1.91 1.91 0 012-1.81h.07c.52-.02 1.02.14 1.43.46z"/></g><path id="p" d="M21.83 27.79c.05-.34-.2-.66-.54-.71h-1.46v-3.47h3.73c1.45 0 2.19.61 2.19 1.99v.96c0 .34-.02.69-.06 1.03h.06c.62-2.39 2.74-4.1 5.21-4.21.25 0 .49.03.74.06v4.02c-.33-.04-.67-.07-1-.06-2.1 0-3.93 1.41-4.47 3.44-.24.87-.36 1.77-.35 2.67V40h-4.05V27.78z"/><path id="q" d="M42.25 29.72h.51v-.13c0-2.35-.93-3.21-3.02-3.21-.74 0-2.19.19-2.19 1.09v.87h-3.79V26.6c0-3.05 4.31-3.38 6.01-3.38 5.47 0 7.07 2.86 7.07 6.53v6.11c-.04.35.22.67.57.71h1.43v3.44h-3.66c-1.51 0-2.09-.84-2.09-1.8 0-.42.03-.71.03-.71h-.06a5.344 5.344 0 01-4.95 2.89c-2.93 0-5.6-1.83-5.6-5.11 0-5.14 7.07-5.56 9.74-5.56zm-3.15 7.49c2.18 0 3.73-2.32 3.73-4.31v-.39h-.71c-2.12 0-5.5.29-5.5 2.57a2.19 2.19 0 002.23 2.15c.08 0 .17 0 .25-.02z"/><path id="r" d="M50.76 27.66a.852.852 0 00-.9-.58h-.35v-3.47h2.35c1.08-.17 2.12.49 2.41 1.54l3.09 8.62c.26.77.46 1.55.61 2.35h.06c.15-.79.34-1.58.58-2.35l3.09-8.62c.3-1.05 1.33-1.71 2.41-1.54h2.19v3.47h-.39a.84.84 0 00-.9.58l-4.69 12.35h-4.85l-4.7-12.35z"/><path id="s" d="M70.14 27.79c.05-.34-.2-.66-.54-.71h-1.46v-3.47h3.89c1.51 0 2.15.67 2.15 2.19v10.06c-.04.35.22.67.57.71h1.43v3.44h-3.89c-1.51 0-2.15-.64-2.15-2.19V27.79z"/><path id="t" d="M79.69 34.8a7.362 7.362 0 004.89 2.41c1.25 0 2.22-.52 2.22-1.61 0-2.31-8.65-2.28-8.65-7.59 0-3.28 2.96-4.79 6.37-4.79 2.22 0 5.75.74 5.75 3.41v1.7h-3.6v-.8c0-.77-1.16-1.16-2.06-1.16-1.45 0-2.44.52-2.44 1.48 0 2.57 8.71 2.06 8.71 7.52 0 3.09-2.73 5.02-6.3 5.02a9.012 9.012 0 01-6.82-2.93l1.93-2.67z"/><path id="u" d="M2.09 20.75H0v-3.57h9.87c4.11 0 7.07 2.12 7.07 5.88a5.33 5.33 0 01-2.77 4.89v.06c2.29.76 3.79 2.96 3.67 5.37 0 4.57-3.63 6.62-7.88 6.62H4.27c-1.51 0-2.19-.64-2.19-2.19V20.74zm7.81 5.76a2.68 2.68 0 002.77-2.61v-.32a2.614 2.614 0 00-2.83-2.83H6.3v5.76h3.6zm-2.89 9.93h3.28a3.299 3.299 0 000-6.59H6.3v5.88c-.04.35.22.67.57.71h.14z"/><path id="v" d="M112.12 6.57c-.99-.54-2.07-.91-3.18-1.11 3.32.75 5.12 4.78 3.57 8.53.93.19 1.83.5 2.67.92.57-2.65.02-6.72-3.06-8.34z" fill="#eaa794"/><path id="w" d="M119 11.86c1.04-2.25 1.64-4.67 1.79-7.15a10.39 10.39 0 00-7.18-4.62c-5.1-.72-12.68 2.57-12.68 9.57a8.38 8.38 0 014.61-3.93c4.84-2.28 10.61-.22 12.89 4.62.23.48.42.98.56 1.49z" fill="#e8927c"/><path id="x" d="M108.31 18.52s.08 0 .16-.01c2.07-.11 4.09-.68 5.91-1.67.41-.57.68-1.23.8-1.93-.85-.42-1.75-.73-2.67-.92a9.616 9.616 0 01-4.2 4.53z" fill="#ecbaa8"/><path id="y" d="M109.67 4.82c-1.43 0-2.83.32-4.12.93 1.09-.39 2.25-.49 3.39-.29 1.11.2 2.19.57 3.18 1.11 3.08 1.61 3.63 5.69 3.06 8.34-.12.69-.39 1.35-.8 1.93.66-.39 1.27-.84 1.84-1.35.73-.63 1.37-1.36 1.92-2.16.32-.47.6-.96.85-1.46-1.2-4.16-5-7.04-9.33-7.04z" fill="#da3c2b"/><path id="z" d="M100.57 11.98s-.86 3.24-1.45 5.85c.77.12 1.51.32 2.25.41-.4-2.07-.67-4.16-.8-6.27z" fill="#da3c2b"/><path id="aa" d="M101.69 21.56c-1.15-.44-1.29-1.02-2.58-1.33 1.37 9.12 6.78 14.74 14.5 13.54 1.64-.23 3.2-.84 4.55-1.8-7.57 1.99-13.92-3.28-16.48-10.41z" fill="#da3c2b"/><path id="ab" d="M126.58 23.71c-1.03 3.6-3.68 6.5-7.16 7.87a11.38 11.38 0 01-9.33 4.87c-4.17 0-8.68-5.02-10.21-11.68-.2-.85-.53-3.36-.6-4.42-.16-.36-.42-.52-.65-.44a31.59 31.59 0 00-.3 4.12c-.17 5.57 1.98 11.96 7.04 14.55 8.48 4.32 19.22 1.5 21.63-5.32a11.37 11.37 0 00-.42-9.54z" fill="#e8927c"/><path id="ac" d="M121.48 25.02v.16c0 .31-.02.61-.05.91-.01.11-.03.22-.04.34l-.06.41c-.27 1.7-.92 3.32-1.91 4.74a11.99 11.99 0 007.16-7.87c-1.3-2.29-3.29-4.12-5.69-5.2-.24.37-.5.73-.79 1.07.15.32.3.62.42.93.56 1.28.87 2.66.93 4.05l.03.46z" fill="#eaa794"/><path id="ad" d="M118.17 31.96s-.07.04-.1.06c-1.33.92-2.86 1.52-4.46 1.74-7.72 1.2-13.61-5.97-14.33-13.43-.4-1.64 0-.87 0 0 0 6.29 3.43 16.11 10.81 16.11 5.6 0 10.36-4.07 11.23-9.6a7.962 7.962 0 01-3.15 5.12z" fill="#e56a54"/><path id="ae" d="M116.22 15.48c1.62 1.01 2.95 2.42 3.87 4.09h.01c.28-.34.54-.7.78-1.06 2.58-4.01 2.54-10.41-.09-13.79-.13 3.05-1.04 6.01-2.65 8.61-.55.8-1.19 1.52-1.92 2.16z" fill="#da3c2b"/><path id="af" d="M113.46 18.19c.35-.43.65-.88.92-1.36-5.79 3.41-12.04-.65-18.07-2.68-11.58-3.9-17.6 1.96-17.6 1.96 5.14-1.99 13.7-1.24 19.36 3.37 2.52 1.88 5.49 3.04 8.61 3.38 2.63-.92 4.98-2.53 6.78-4.66z" fill="#eaa794"/><path id="ag" d="M116.23 15.49l-.15.12c-.15.12-.3.25-.45.36-.39.31-.81.6-1.24.86-.26.48-.57.94-.92 1.36-1.8 2.13-4.14 3.74-6.78 4.66 3.38.6 6.86.28 10.07-.92.39-.17.76-.36 1.13-.57.04-.02.08-.05.12-.07.46-.28.9-.6 1.31-.96.27-.25.52-.51.76-.79a11.19 11.19 0 00-3.85-4.06z" fill="#e56a54"/></g></g></svg>