<svg width="200" height="58" viewBox="0 0 200 58" fill="none" xmlns="http://www.w3.org/2000/svg">
<path d="M0.476807 37.6022H14.4414C23.4332 37.6022 34.3324 31.6757 34.3324 18.8011C34.3324 6.06267 25.1362 0 15.2588 0H0.476807V37.6022ZM7.15255 31.5395V6.13079H13.2833C21.4577 6.13079 27.3842 9.74114 27.3842 18.8692C27.3842 27.9973 20.5722 31.6076 12.1934 31.6076H7.15255V31.5395ZM35.7629 24.8637C35.7629 32.9019 41.8937 38.2152 49.5912 38.2152C57.2888 38.2152 63.4196 32.8338 63.4196 24.8637C63.4196 16.8256 57.2888 11.5123 49.5912 11.5123C41.8937 11.5123 35.7629 16.8937 35.7629 24.8637ZM42.1662 24.8637C42.1662 20.9128 44.9591 17.2343 49.6594 17.2343C54.2915 17.2343 57.1525 20.9128 57.1525 24.8637C57.1525 28.8147 54.3596 32.4932 49.6594 32.4932C44.9591 32.4932 42.1662 28.8828 42.1662 24.8637ZM65.8719 37.6022H72.207V23.7057C72.207 20.2997 73.8419 17.2343 78.0653 17.2343C81.1307 17.2343 82.425 19.2779 82.425 22.4114V37.6022H88.7602V23.8419C88.7602 20.5722 90.2588 17.2343 94.2097 17.2343C97.9563 17.2343 98.91 19.9591 98.91 23.1607V37.6022H105.245V22.4114C105.245 16.2806 102.861 11.5123 96.049 11.5123C92.2343 11.5123 89.5095 13.0109 87.6702 16.2125C86.376 13.0109 83.6512 11.5123 79.7002 11.5123C75.4768 11.5123 73.0245 13.7602 71.9345 16.1444H71.7983V12.1935H65.7356V37.6022H65.8719ZM133.447 27.1117V25.3406C133.447 16.485 128.61 11.5123 121.526 11.5123C113.828 11.5123 107.697 16.8937 107.697 24.8637C107.697 32.9019 113.828 38.2152 121.526 38.2152C125.545 38.2152 129.291 36.7847 132.289 33.1062L127.725 29.6321C126.158 31.6076 124.046 33.1062 120.913 33.1062C117.371 33.1062 114.509 30.8583 114.101 27.0436H133.447V27.1117ZM114.033 22.3433C114.509 18.6648 116.826 16.2806 120.64 16.2806C124.591 16.2806 127.044 18.5967 127.112 22.3433H114.033ZM154.905 15.3951C152.861 12.6022 149.251 11.5123 145.845 11.5123C140.668 11.5123 135.627 14.0327 135.627 19.7548C135.627 29.4278 149.387 25.3406 149.387 30.5858C149.387 32.6294 147.003 33.515 145.163 33.515C142.439 33.515 140.736 32.2207 139.101 30.3815L134.877 34.3324C137.466 37.2616 140.872 38.2834 144.823 38.2834C150 38.2834 155.79 36.1716 155.79 30.109C155.79 20.1635 142.03 23.9101 142.03 19.346C142.03 17.4387 144.073 16.6212 145.708 16.6212C147.888 16.6212 149.455 17.5068 150.681 19.2098L154.905 15.3951ZM161.444 17.5749V29.2234C161.444 35.218 163.011 38.2152 169.755 38.2152C171.253 38.2152 173.433 38.0109 174.796 37.3978V32.0163C173.978 32.6294 172.479 32.8338 171.321 32.8338C168.529 32.8338 167.779 31.267 167.779 28.6785V17.5749H174.796V12.1935H167.779V4.76839H161.444V12.1253H156.199V17.5068H161.444V17.5749ZM193.869 37.6022H199.591V22.9564C199.591 19.346 199.591 11.5123 188.692 11.5123C184.673 11.5123 180.654 12.7384 177.861 15.5994L181.199 18.9373C182.902 17.3706 185.354 16.2806 188.011 16.2806C191.417 16.2806 193.869 17.9155 193.869 21.049V21.7302H192.302C185.967 21.7302 176.294 22.3433 176.294 30.5858C176.294 35.6267 180.858 38.2152 185.559 38.2152C188.964 38.2152 191.894 36.921 193.733 34.0599H193.869V37.6022ZM193.529 27.6567C193.529 31.1989 191.485 33.515 187.125 33.515C185.082 33.515 182.697 32.4932 182.697 30.1771C182.697 26.4986 188.76 26.2261 192.234 26.2261H193.529V27.6567Z" fill="#7E1B99"/>
<path d="M200 46.049C191.689 44.891 183.379 43.6648 175 42.8474C166.689 42.0299 158.379 41.485 150 41.485C141.689 41.485 133.379 41.9618 125 42.8474C116.689 43.6648 108.379 44.891 100 46.049C91.6894 47.2071 83.3787 48.4332 75 49.2506C66.6894 50.0681 58.3787 50.613 50 50.613C41.6894 50.613 33.3787 50.1362 25 49.2506C16.6894 48.4332 8.37875 47.2071 0 46.049V57.97H199.728V46.049H200Z" fill="#7E1B99"/>
</svg>
