<svg width="202px" height="35px" viewBox="0 0 202 35" version="1.1" xmlns="http://www.w3.org/2000/svg" xmlns:xlink="http://www.w3.org/1999/xlink">
  <path d="M123.152,12.225h-6.57V5.657A5.484,5.484,0,0,0,111.116.188h-.436a5.484,5.484,0,0,0-5.465,5.469v17.53l.405.406h17.532a5.482,5.482,0,0,0,5.465-5.467v-.433A5.48,5.48,0,0,0,123.152,12.225Z" fill="#ed145a"></path>
  <path d="M116.582,26.253,102.554,12.225h-1.489l15.517,15.517Zm0,3.406L99.145,12.225H97.66l18.922,18.922Zm0-6.81L105.957,12.225h-1.488l12.113,12.112Zm-21.6-9.895,20.831,20.833h.768v-.721L95.741,12.225h-.758Zm21.6,6.489-7.218-7.218h-1.487l8.7,8.706Zm0-3.406-3.814-3.812h-1.485l5.3,5.3Zm-21.6,3.728,3.811,3.813h1.488l-5.3-5.3Zm10.244,14.022h1.856l-1.856-1.857Zm11.355-21.562h-1.893l1.893,1.893Zm-21.6,11.353h1.894l-1.894-1.895Zm10.244,6.432L109,33.787h1.486l-5.262-5.264ZM94.983,16.359l7.22,7.219h1.486l-8.706-8.707ZM105.227,26.6l7.181,7.183H113.9l-8.668-8.671Z" fill="#9e005d"></path>
  <path d="M139.378,22.239a.334.334,0,0,1-.332.319h-5.1a.467.467,0,0,1-.456-.457.4.4,0,0,1,.07-.246l4.945-7.308h-4.628a.312.312,0,0,1-.334-.334.325.325,0,0,1,.353-.316h4.974a.45.45,0,0,1,.456.438.439.439,0,0,1-.087.264l-4.945,7.31h4.753A.333.333,0,0,1,139.378,22.239Zm2.471-8.519a.347.347,0,0,0-.348.337v8.32a.341.341,0,1,0,.682,0v-8.32A.345.345,0,0,0,141.849,13.72Zm5.784,0a2.78,2.78,0,0,0-2.943,2.948v3.116a2.774,2.774,0,0,0,2.943,2.944,5.961,5.961,0,0,0,2.4-.538.349.349,0,0,0,.214-.318.344.344,0,0,0-.333-.315.47.47,0,0,0-.157.036,5.648,5.648,0,0,1-2.123.508,2.139,2.139,0,0,1-2.258-2.317v-1.5h4.642a.554.554,0,0,0,.562-.561V16.668a2.779,2.779,0,0,0-2.946-2.948Zm2.264,3.931h-4.522V16.617a2.261,2.261,0,1,1,4.522,0Zm4.381.031,3.908-3.362a.379.379,0,0,0,.122-.263.36.36,0,0,0-.349-.337.381.381,0,0,0-.213.091l-4.085,3.522V14.067a.341.341,0,1,0-.682,0v8.31a.341.341,0,1,0,.682,0V18l4.157,4.606a.393.393,0,0,0,.262.12.335.335,0,0,0,.335-.351.328.328,0,0,0-.088-.226Zm8.394-3.962a2.777,2.777,0,0,0-2.944,2.948v3.116a2.964,2.964,0,0,0,.806,2.138,2.93,2.93,0,0,0,2.138.806,5.979,5.979,0,0,0,2.4-.538.353.353,0,0,0,.209-.318.343.343,0,0,0-.336-.315.454.454,0,0,0-.154.036,5.661,5.661,0,0,1-2.121.508,2.142,2.142,0,0,1-2.262-2.317v-1.5h4.643a.554.554,0,0,0,.566-.561V16.668a2.786,2.786,0,0,0-2.947-2.948Zm2.26,3.931H160.41V16.617a2.261,2.261,0,1,1,4.522,0Zm5.943-3.931a8.177,8.177,0,0,0-2.559.424.565.565,0,0,0-.389.524v7.709a.343.343,0,1,0,.685,0V14.7a7.5,7.5,0,0,1,2.263-.349,2.09,2.09,0,0,1,2.261,2.263v5.76a.343.343,0,1,0,.686,0V16.668a2.732,2.732,0,0,0-2.947-2.948Zm11.113,0a.347.347,0,0,0-.334.347v3.615H177.1V14.067a.342.342,0,1,0-.683,0v8.31a.342.342,0,1,0,.683,0V18.315h4.558v4.062a.342.342,0,1,0,.684,0v-8.31A.35.35,0,0,0,181.988,13.72Zm8.393,0a.352.352,0,0,0-.348.355v7.674a7.3,7.3,0,0,1-2.261.352,2.091,2.091,0,0,1-2.26-2.261V14.075a.355.355,0,0,0-.35-.355.349.349,0,0,0-.332.355v5.709a2.721,2.721,0,0,0,2.942,2.944,8.268,8.268,0,0,0,2.561-.416.576.576,0,0,0,.383-.528V14.075A.353.353,0,0,0,190.381,13.72Zm3.577,0a.353.353,0,0,0-.35.337v8.32a.351.351,0,0,0,.35.351.342.342,0,0,0,.33-.351v-8.32A.343.343,0,0,0,193.958,13.72Zm6.025,4.331-1.483-.7a1.555,1.555,0,0,1-1.12-1.435,1.659,1.659,0,0,1,1.769-1.56,4.883,4.883,0,0,1,1.872.4.6.6,0,0,0,.161.032.336.336,0,0,0,.351-.331.318.318,0,0,0-.214-.315,6.085,6.085,0,0,0-2.17-.424,2.333,2.333,0,0,0-2.454,2.159,2.145,2.145,0,0,0,1.456,2.049l1.486.736c.9.44,1.37.881,1.37,1.8a1.718,1.718,0,0,1-1.913,1.648,4.675,4.675,0,0,1-1.925-.473.519.519,0,0,0-.141-.031.356.356,0,0,0-.333.348.335.335,0,0,0,.211.3,5.189,5.189,0,0,0,2.188.471,2.47,2.47,0,0,0,2.595-2.449A2.591,2.591,0,0,0,199.983,18.051Zm-138.83-4.31a3.4,3.4,0,0,0-3.59,3.59v1.823a3.591,3.591,0,1,0,7.178,0V17.331a3.4,3.4,0,0,0-3.588-3.59Zm1.828,5.57a1.829,1.829,0,0,1-3.657,0V17.192a1.665,1.665,0,0,1,1.829-1.829,1.722,1.722,0,0,1,1.828,1.829Zm9.193.75a2.774,2.774,0,0,1-3.041,2.684,5.888,5.888,0,0,1-2.462-.479A.853.853,0,0,1,67,20.625a1.083,1.083,0,0,1,.4.1,3.788,3.788,0,0,0,1.776.393c.82,0,1.248-.3,1.248-.889,0-.63-.51-.838-1.144-1.06l-1.4-.512a2.342,2.342,0,0,1-1.641-2.344,2.692,2.692,0,0,1,2.956-2.576,5.118,5.118,0,0,1,2.327.424.877.877,0,0,1,.562.805.821.821,0,0,1-.824.822,1.158,1.158,0,0,1-.407-.087,4.412,4.412,0,0,0-1.694-.342c-.7,0-1.162.342-1.162.923a.914.914,0,0,0,.7.838l1.676.545A2.374,2.374,0,0,1,72.174,20.061Zm3.231-3.039v2.425a1.512,1.512,0,0,0,1.658,1.659,4.044,4.044,0,0,0,1.674-.43.721.721,0,0,1,.375-.083.82.82,0,0,1,.822.82.872.872,0,0,1-.513.787,5.318,5.318,0,0,1-2.358.545,3.256,3.256,0,0,1-3.419-3.434V17.157a3.255,3.255,0,0,1,3.419-3.416,5.321,5.321,0,0,1,2.377.549.851.851,0,0,1,.494.78.825.825,0,0,1-.838.81,1.1,1.1,0,0,1-.41-.1,4.075,4.075,0,0,0-1.623-.413A1.521,1.521,0,0,0,75.405,17.022ZM88.323,14.6V21.86a.878.878,0,1,1-1.755,0V19.107H83.231V21.86a.879.879,0,1,1-1.758,0V14.6a.879.879,0,1,1,1.758,0v2.75h3.337V14.6a.878.878,0,1,1,1.755,0Zm-32.5,1.678a2.555,2.555,0,0,0-.729-1.867A2.621,2.621,0,0,0,53.2,13.7H50.952a1.033,1.033,0,0,0-1.039,1.027v6.859a1.033,1.033,0,0,0,1.039,1.025H53.3a2.616,2.616,0,0,0,2.758-2.75,2.517,2.517,0,0,0-.887-1.933A2.349,2.349,0,0,0,55.826,16.28Zm-4.272-1h1.678a.928.928,0,0,1,.725.25,1.089,1.089,0,0,1-.93,1.756H51.554Zm2.584,5.432a1.092,1.092,0,0,1-.825.283H51.559V18.753h1.535a1.2,1.2,0,0,1,1.044,1.956ZM19.811,14.715a.8.8,0,0,1-.836.822.968.968,0,0,1-.293-.034,3.635,3.635,0,0,0-.855-.14.8.8,0,0,0-.788.79v5.713a.88.88,0,1,1-1.76,0V16.287a2.49,2.49,0,0,1,2.548-2.547,6.675,6.675,0,0,1,1.284.135A.862.862,0,0,1,19.811,14.715Zm4.449-.975a3.4,3.4,0,0,0-3.592,3.594v1.823a3.594,3.594,0,1,0,7.183,0V17.334A3.407,3.407,0,0,0,24.26,13.74Zm1.832,5.575a1.663,1.663,0,0,1-1.832,1.812,1.661,1.661,0,0,1-1.831-1.812V17.2a1.669,1.669,0,0,1,1.831-1.832A1.726,1.726,0,0,1,26.092,17.2Zm6.719-5.575a3.256,3.256,0,0,0-3.42,3.419v2.156a3.259,3.259,0,0,0,3.42,3.438,5.96,5.96,0,0,0,2.6-.581.82.82,0,0,0,.448-.772.845.845,0,0,0-.84-.8.936.936,0,0,0-.359.082,4.538,4.538,0,0,1-1.848.446,1.578,1.578,0,0,1-1.316-.581,2.485,2.485,0,0,1-.343-1.471h3.986a1.111,1.111,0,0,0,1.111-1.11v-.806a3.42,3.42,0,0,0-.956-2.462A3.353,3.353,0,0,0,32.811,13.74Zm-1.659,3.712c0-1.438.583-2.089,1.659-2.089,1.1,0,1.675.672,1.675,2.089ZM44,14.7a3.41,3.41,0,0,1,.96,2.462v4.707a.882.882,0,0,1-.887.887.868.868,0,0,1-.875-.887V17.025a1.529,1.529,0,0,0-1.677-1.662,6.649,6.649,0,0,0-1.658.225v6.278a.882.882,0,1,1-1.763,0V15.228a1.088,1.088,0,0,1,.755-1.046,8.157,8.157,0,0,1,2.666-.442A3.345,3.345,0,0,1,44,14.7Zm-34-.957a3.253,3.253,0,0,0-3.419,3.419v2.156a3.256,3.256,0,0,0,3.419,3.438,5.98,5.98,0,0,0,2.6-.581.816.816,0,0,0,.441-.772.84.84,0,0,0-.834-.8.934.934,0,0,0-.362.082,4.546,4.546,0,0,1-1.848.446,1.582,1.582,0,0,1-1.316-.581,2.479,2.479,0,0,1-.341-1.471h3.984a1.109,1.109,0,0,0,1.11-1.11v-.806a3.419,3.419,0,0,0-.955-2.462A3.353,3.353,0,0,0,9.992,13.74ZM8.335,17.452c0-1.438.58-2.089,1.657-2.089,1.1,0,1.677.672,1.677,2.089ZM4.7,14.628V20.2a2.49,2.49,0,0,1-2.545,2.55,6.585,6.585,0,0,1-1.284-.138.862.862,0,0,1-.7-.839.8.8,0,0,1,.835-.822.949.949,0,0,1,.292.034,3.592,3.592,0,0,0,.857.14.8.8,0,0,0,.786-.792v-5.71a.88.88,0,1,1,1.759,0Z" fill="#9e005d"></path>
</svg>
