<svg id="Lieven_de_Key" data-name="Lieven de Key" xmlns="http://www.w3.org/2000/svg" width="193.884" height="30.162" viewBox="0 0 193.884 30.162">
  <path id="Path_1" data-name="Path 1" d="M51.518,61.339H64.689v3.485H46.075V61.345c.973,0,2.444.062,2.444-3.454L48.5,48.629h.011A7.209,7.209,0,0,1,56.061,41.3a7.389,7.389,0,1,1,0,14.774V52.928a4.209,4.209,0,0,0,4.04-4.273,4.166,4.166,0,0,0-4.051-4.226,3.987,3.987,0,0,0-3.827,4.226h-.011v9.236A6.057,6.057,0,0,1,51.518,61.339ZM68.46,41.8a2.1,2.1,0,1,0,2.128,2.1A2.059,2.059,0,0,0,68.46,41.8ZM66.687,64.819h3.482V48.312H66.687Zm22.149-8.834a9.428,9.428,0,0,1-.1,1.322H76.294v.226A4.426,4.426,0,0,0,80.9,62.175a3.956,3.956,0,0,0,4.159-2.9h3.482c-.58,3.256-3.353,5.738-7.447,5.738-5.191,0-8.447-3.353-8.447-8.414,0-5.094,3.256-8.479,8.125-8.479C85.547,48.119,88.739,51.149,88.836,55.985ZM85.225,54.76a4.124,4.124,0,0,0-4.417-3.837,4.265,4.265,0,0,0-4.385,3.837Zm11.994,6.319L92.673,48.312h-3.74l6.093,16.507h4.256l6.094-16.507H101.7Zm24.438-5.094a9.486,9.486,0,0,1-.1,1.322H109.115v.226a4.426,4.426,0,0,0,4.61,4.642,3.955,3.955,0,0,0,4.159-2.9h3.482c-.581,3.256-3.353,5.738-7.447,5.738-5.191,0-8.447-3.353-8.447-8.414,0-5.094,3.256-8.479,8.125-8.479C118.368,48.119,121.56,51.149,121.657,55.985Zm-3.611-1.225a4.124,4.124,0,0,0-4.417-3.837,4.265,4.265,0,0,0-4.385,3.837Zm14.8-6.641a6.3,6.3,0,0,0-5.287,2.353l-.387-2.16h-3.03V64.819h3.482V56.5c0-3.353,1.644-5.384,4.417-5.384,2.612,0,3.933,1.677,3.933,4.8v8.9h3.515V55.63C139.486,50.117,136.487,48.119,132.844,48.119ZM161,42.251h3.482V64.819h-3.03l-.419-2.482a6.389,6.389,0,0,1-5.384,2.675c-4.481,0-7.8-3.159-7.8-8.447,0-5.094,3.321-8.447,7.8-8.447A6.341,6.341,0,0,1,161,50.6Zm.032,14.379c0-3.288-1.9-5.545-4.8-5.545s-4.8,2.257-4.8,5.481c0,3.256,1.9,5.513,4.8,5.513S161.035,59.822,161.035,56.63Zm21.516-.645a9.428,9.428,0,0,1-.1,1.322H170.01v.226a4.426,4.426,0,0,0,4.61,4.642,3.956,3.956,0,0,0,4.159-2.9h3.482c-.581,3.256-3.353,5.738-7.447,5.738-5.191,0-8.447-3.353-8.447-8.414,0-5.094,3.256-8.479,8.125-8.479C179.263,48.119,182.455,51.149,182.551,55.985Zm-3.611-1.225a4.124,4.124,0,0,0-4.417-3.837,4.265,4.265,0,0,0-4.385,3.837Zm44.138,1.225a9.486,9.486,0,0,1-.1,1.322H210.538v.226a4.426,4.426,0,0,0,4.61,4.642,3.956,3.956,0,0,0,4.159-2.9h3.482c-.58,3.256-3.353,5.738-7.447,5.738-5.191,0-8.447-3.353-8.447-8.414,0-5.094,3.256-8.479,8.125-8.479C219.79,48.119,222.982,51.149,223.079,55.985Zm-3.611-1.225a4.124,4.124,0,0,0-4.417-3.837,4.264,4.264,0,0,0-4.384,3.837Zm17.01-6.448V56.5c0,3.353-1.58,5.352-4.191,5.352-2.515,0-3.837-1.612-3.837-4.739v-8.8h-3.514v9.156c0,5.578,3.063,7.415,6.577,7.415a5.657,5.657,0,0,0,5-2.579v2.224a3.718,3.718,0,0,1-4.094,4.094c-2.192,0-3.546-.935-3.966-2.74H224.9c.29,3.676,3.1,5.577,7.222,5.577,5.513,0,7.834-2.934,7.834-6.932V48.312ZM209.141,42.2h-5.015l-8.78,9.048V42.2H191.63V64.824h3.716V55.776l8.78,9.048h5.015l-11.11-11.31Z" transform="translate(-46.075 -41.298)" fill="#1232c8"/>
</svg>
