<?xml version="1.0" encoding="utf-8"?>
<!-- Generator: Adobe Illustrator 24.1.0, SVG Export Plug-In . SVG Version: 6.00 Build 0)  -->
<svg version="1.1" id="Laag_1" xmlns="http://www.w3.org/2000/svg" xmlns:xlink="http://www.w3.org/1999/xlink" x="0px" y="0px"
	 viewBox="0 0 1842.52 841.89" style="enable-background:new 0 0 1842.52 841.89;" xml:space="preserve">
<style type="text/css">
	.st0{fill:#11275E;}
	.st1{fill:#E9530E;}
</style>
<g>
	<g>
		<path class="st0" d="M475.35,413.92c16.46,0,24.98-3.17,24.98-16.84c0-13.68-8.92-16.47-24.57-16.47h-7.75v33.32H475.35
			 M431.72,491.86V350.08h40.45h2.77c17.85,0,31.93,0.19,43.03,7.34c12.51,7.92,19.84,22.6,19.84,40.84
			c0,18.85-6.94,32.91-19.63,40.44c-9.72,5.76-20.63,6.37-33.91,6.37h-9.32h-6.94v46.79H431.72z"/>
		<path class="st0" d="M790.44,417.1c16.26,0,24-5.15,24-17.65c0-14.87-7.34-19.62-23.4-19.62h-7.73v37.27H790.44 M747.02,350.08
			h40.45h2.38c19.63,0,34.69,0.19,46.8,9.5c10.31,7.95,15.86,20.03,15.86,34.71c0,22.04-11.11,36.11-31.72,40.46l38.67,57.11h-43.63
			l-32.52-55.53v55.53h-36.29V350.08z"/>
		<polygon class="st0" points="912.4,383.58 880.86,383.58 880.86,350.08 982.79,350.08 982.79,383.58 951.06,383.58 951.06,491.87 
			912.4,491.87 		"/>
		<polygon class="st0" points="1323.65,350.08 1362.32,350.08 1362.32,458.74 1410.32,458.74 1410.32,491.86 1323.65,491.86 		"/>
		<path class="st0" d="M636.85,460.9c-21.87,0-39.59-17.73-39.59-39.59c0-21.87,17.72-39.58,39.59-39.58
			c21.86,0,39.58,17.72,39.58,39.58C676.42,443.17,658.71,460.9,636.85,460.9 M636.85,346.85c-41.24,0-74.67,33.43-74.67,74.68
			c0,41.22,33.43,74.65,74.67,74.65c41.23,0,74.67-33.42,74.67-74.65C711.51,380.28,678.08,346.85,636.85,346.85"/>
		<polygon class="st0" points="1068.27,383.06 1033.38,491.92 994.91,491.92 1043.89,350.14 1092.27,350.14 1141.24,491.92 
			1102.78,491.92 		"/>
		<polygon class="st0" points="1229.1,383.07 1194.2,491.93 1155.73,491.93 1204.71,350.15 1253.1,350.15 1302.07,491.93 
			1263.61,491.93 		"/>
	</g>
	<path class="st1" d="M1488.19,458.74v91.51c0,5.13-2.07,10.14-5.69,13.78l0,0c-3.62,3.62-8.64,5.7-13.77,5.7l0,0
		c0,0-145.08,0-145.08,0V530.8h125.6l0.01-72.06H1488.19z"/>
	<path class="st1" d="M354.33,383.16v-91.52c0-5.14,2.07-10.15,5.69-13.78l0,0c3.63-3.63,8.64-5.7,13.78-5.7l0,0
		c0,0,145.07,0,145.07,0v38.93H393.27l0,72.07H354.33z"/>
</g>
</svg>
