<?xml version="1.0" encoding="utf-8"?>
<!-- Generator: Adobe Illustrator 26.0.0, SVG Export Plug-In . SVG Version: 6.00 Build 0)  -->
<svg version="1.1" id="Laag_1" xmlns="http://www.w3.org/2000/svg" xmlns:xlink="http://www.w3.org/1999/xlink" x="0px" y="0px"
	 width="422.1px" height="54.9px" viewBox="0 0 422.1 54.9" style="enable-background:new 0 0 422.1 54.9;" xml:space="preserve">
<style type="text/css">
	.st0{fill:#005CA9;}
</style>
<g id="logo" transform="translate(-463 -398.394)">
	<path id="Path_40" class="st0" d="M553.9,413.4c-1.6-0.5-3.3-0.8-5-0.7c-3.7,0-7.3,1.7-7.3,6.3c0,6.9,9.1,5.2,9.1,9.2
		c0,1.9-2.1,2.7-3.7,2.7c-1.7,0-3.3-0.5-4.7-1.3l-0.4,3.8c1.7,0.5,3.5,0.8,5.3,0.8c4.2,0,7.8-1.7,7.8-6.3c0-7-9.1-5.5-9.1-9.1
		c0-2.3,1.8-2.9,3.3-2.9s2.9,0.3,4.2,0.9L553.9,413.4L553.9,413.4z M560.7,433.8h4v-22.3h-4V433.8z M570.9,433.8h4v-15.3h-4V433.8z
		 M570.9,415.7h4v-3.8h-4V415.7z M581.1,433.8h4v-7.5c0-2,0.6-5.1,3.5-5.1c2.6,0,2.6,2.5,2.6,4.4v8.2h4v-9.7c0-3.5-1.6-6-5.2-6
		c-2-0.1-3.9,0.8-5,2.4h-0.1v-2.1h-3.8V433.8L581.1,433.8z M607.9,430.7c-2.3,0-3.4-2.6-3.4-4.6c0-2.4,0.9-4.9,3.6-4.9
		c2.3,0,3.3,2.1,3.3,4.8C611.4,428.5,610.4,430.7,607.9,430.7L607.9,430.7z M611.6,418.5v2.1h-0.1c-1-1.6-2.8-2.6-4.7-2.4
		c-4.6,0-6.5,4.3-6.5,8c0,4.1,1.7,7.7,6.3,7.7c1.9,0.1,3.7-0.9,4.8-2.4h0.1c0,2.7-0.2,6-4.6,6c-1.6-0.1-3.1-0.6-4.5-1.3l-0.3,3.4
		c1.7,0.7,3.5,1.1,5.3,1c6.4,0,8.1-3.9,8.1-8.1v-13.9L611.6,418.5L611.6,418.5z M624.4,424.6c0.2-2.1,1.3-3.6,3.5-3.6
		s3.1,1.7,3.2,3.6H624.4z M633.8,429.7c-1.5,1-3.3,1.5-5.1,1.5c-2.2,0.2-4.2-1.4-4.4-3.6v-0.3h10.6c0-5.4-1.6-9.3-7.3-9.3
		c-4.8,0-7.1,3.7-7.1,8.1c0,5,2.9,8,8,8c1.8,0.1,3.7-0.4,5.3-1.2V429.7z M640.2,433.8h4v-22.3h-4V433.8z M651.2,422.7
		c1.4-1,3-1.6,4.7-1.7c2.4,0,3.5,0.8,3.5,3.3h-2.2c-1.8-0.1-3.5,0.2-5.2,0.9c-1.7,0.8-2.7,2.5-2.6,4.4c0,2.9,2.7,4.6,5.4,4.6
		c1.9,0,3.7-1,4.7-2.7h0.1c0,0.8,0.1,1.5,0.2,2.3h3.5c-0.1-1.2-0.1-2.3-0.2-3.4c0-1.1-0.1-2.3-0.1-3.8v-2c0-4.5-1.9-6.5-6.6-6.5
		c-1.8,0-3.7,0.4-5.3,1.2L651.2,422.7L651.2,422.7z M653.2,429.4c0-2.4,2.7-2.7,4.4-2.7h1.7c0.1,1.1-0.2,2.2-0.8,3.2
		c-0.7,0.9-1.7,1.4-2.8,1.4C654.3,431.2,653.2,430.7,653.2,429.4L653.2,429.4z M668.9,433.8h4v-7.5c0-2,0.6-5.1,3.5-5.1
		c2.6,0,2.6,2.5,2.6,4.4v8.2h4v-9.7c0-3.5-1.6-6-5.2-6c-2-0.1-3.9,0.8-5,2.4h-0.1v-2.1h-3.8V433.8L668.9,433.8z M692.3,426.1
		c0-2.1,0.7-4.9,3.3-4.9s3.6,2.7,3.6,4.9s-0.9,5-3.5,5C693,431.1,692.3,428.2,692.3,426.1L692.3,426.1z M699.3,433.8h3.9v-22.3h-4
		v8.8h-0.1c-1.1-1.4-2.8-2.2-4.6-2.1c-4.7,0-6.4,3.8-6.4,8s1.7,8.1,6.4,8.1c1.8,0.1,3.6-0.7,4.7-2.1h0.1L699.3,433.8L699.3,433.8z
		 M718.6,433.8H733v-3.3h-10.1l9.9-14.1V413H719v3.3h9.4l-9.8,14.1L718.6,433.8L718.6,433.8z M738.2,433.8h4v-15.3h-4V433.8z
		 M738.2,415.7h4v-3.8h-4V415.7z M751.2,424.6c0.2-2.1,1.3-3.6,3.5-3.6s3.1,1.7,3.2,3.6H751.2z M760.7,429.7c-1.5,1-3.3,1.5-5.1,1.5
		c-2.2,0.2-4.2-1.4-4.4-3.6v-0.3h10.6c0-5.4-1.6-9.3-7.3-9.3c-4.8,0-7.1,3.7-7.1,8.1c0,5,2.9,8,8,8c1.8,0.1,3.7-0.4,5.3-1.2V429.7z
		 M767.1,433.8h4v-7.4h0.1l5.1,7.5h5.1l-6.4-8.5l5.7-6.9h-4.8l-4.8,6.1H771v-13.1h-4L767.1,433.8L767.1,433.8z M788.4,424.6
		c0.2-2.1,1.3-3.6,3.5-3.6s3.1,1.7,3.2,3.6H788.4z M797.8,429.7c-1.5,1-3.3,1.5-5.1,1.5c-2.2,0.2-4.2-1.4-4.4-3.6v-0.3h10.6
		c0-5.4-1.6-9.3-7.3-9.3c-4.8,0-7.1,3.7-7.1,8.1c0,5,2.9,8,8,8c1.8,0.1,3.7-0.4,5.3-1.2V429.7z M804.1,433.8h4v-7.5
		c0-2,0.6-5.1,3.5-5.1c2.6,0,2.6,2.5,2.6,4.4v8.2h4v-9.7c0-3.5-1.6-6-5.2-6c-2-0.1-3.9,0.8-5,2.4h-0.1v-2.1h-3.8V433.8L804.1,433.8z
		 M824.3,433.8h4v-7.5c0-2,0.6-5.1,3.5-5.1c2.6,0,2.6,2.5,2.6,4.4v8.2h4v-9.7c0-3.5-1.6-6-5.2-6c-1.9,0-3.7,0.9-4.8,2.4h-0.1v-9.1
		h-4V433.8L824.3,433.8z M858.6,418.5h-4v7.5c0,2-0.6,5.1-3.5,5.1c-2.6,0-2.6-2.5-2.6-4.4v-8.2h-4v9.7c0,3.5,1.6,6,5.2,6
		c2,0,3.8-0.9,5-2.4h0.1v2.1h3.8V418.5L858.6,418.5z M864.8,433.8h4v-15.3h-4V433.8z M864.8,415.7h4v-3.8h-4V415.7z M884.3,418.7
		c-1.4-0.4-2.9-0.5-4.3-0.6c-3.1,0-6,1.5-6,4.8c0,5.5,6.9,3.5,6.9,6.5c0,1.5-1.6,1.9-2.6,1.9c-1.4,0-2.7-0.4-3.9-1l-0.2,3.3
		c1.5,0.4,3,0.6,4.5,0.7c3.2,0,6.4-1.4,6.4-5c0-5.5-6.9-4-6.9-6.4c0-1.3,1.3-1.7,2.4-1.7c1.2,0,2.4,0.2,3.6,0.7L884.3,418.7
		L884.3,418.7z"/>
	<g id="Group_61">
		<path id="Path_41" class="st0" d="M485.1,429.3c-3.8,1.2-5.8,1.7-7.7-0.2c-1.6-1.6-1.5-4.3,0.1-5.9l0.1-0.1c1.5-1.8,4.2-2,6-0.4
			c0.3,0.2,0.5,0.4,0.9,0c0.5-0.5,0.6-0.8,0.4-0.9l-0.1-0.1l-3.4-3.1c-1.5,0.6-2.9,1.5-4,2.6c-1.6,1.5-2.7,3.6-3.1,5.8
			c-0.3,2.1,0.5,4.2,2,5.6c2,2,3.8,2.4,6.9,1.6l5.3-1.4c2.5-0.6,4.3-0.3,5.8,1.2c1.7,2,1.6,4.9-0.2,6.8c-1.8,2-4.8,2.4-7.1,0.9
			c-0.2-0.1-0.4-0.1-0.5,0c-0.4,0.4-0.6,0.6-0.6,0.8c0,0.1,0,0.1,0.1,0.1l2.8,2.1c0.4,0.3,0.8,0.6,1.3,0.7h0.2
			c1.7-0.8,3.3-1.8,4.6-3.1c3.2-3.2,4.6-8.4,1.1-12C492.5,427,488.9,428.1,485.1,429.3L485.1,429.3z"/>
		<path id="Path_42" class="st0" d="M527,422.8l-1.6-3c-0.3,0-0.6,0.1-0.9,0.3c-0.2,0.2-0.1,0.5,0.1,1l0.5,2
			c0.2,0.7-0.3,1.8-1.4,2.9l-3.3,3.3c-0.4,0.4-0.8,0.8-0.9,0.8c-0.1-0.3-0.2-0.6-0.2-0.9c0-0.1,0-0.3-0.1-0.4l-0.3-1.9
			c-0.6-4.1-1.2-8.3-1.9-12.6c0-0.6-0.2-1.2-0.4-1.7c-0.1-0.1-0.3-0.1-0.4,0l-1.5,1.5c-0.5,0.5-0.9,1-1.4,1.5
			c-0.2,0.2-1.4,1.4-2.6,2.5c-1.1,1-2.1,2-2.2,2.2c-0.3,0.3-1.2,0.1-1.6-0.2l-0.5,0.5c-0.1,0.1-0.1,0.3,0,0.4
			c0.9,1.5,1.5,2.5,1.8,3.2c0.1,0.3,0.3,0.6,0.5,0.8c0.2,0.2,0.5,0.1,0.9-0.2c0.2-0.2,0.1-0.8-0.1-1.6c-0.3-0.9,0.8-2.6,1.9-3.7
			l2.2-2.2c0.3-0.3,0.7-0.7,0.9-0.7c0.1,0.4,0.1,0.9,0.2,1.3l0.1,0.5l2.2,15.5c0.1,0.2,0.2,0.3,0.3,0.4l0.1,0.1l0.1-0.1
			c0.4-0.4,0.7-0.8,1.2-1.2c0.8-0.9,2-2,4-4.1l3.4-3.4c0.7-0.7,1.3-1.3,1.6-1.5C527.4,424,527.6,423.9,527,422.8L527,422.8z"/>
		<path id="Path_43" class="st0" d="M463.9,429.2l-0.9,0.9l23.1,23.1l0.1,0.1l0.9-0.9L463.9,429.2z"/>
		<path id="Path_44" class="st0" d="M517.9,399.4l-0.9-1l-23.1,23.1l-0.1,0.1l0.9,0.9L517.9,399.4L517.9,399.4z"/>
	</g>
</g>
</svg>
